<?xml version="1.0" encoding="UTF-8" standalone="no"?>
<!-- Created with Inkscape (http://www.inkscape.org/) -->
<svg
   xmlns:svg="http://www.w3.org/2000/svg"
   xmlns="http://www.w3.org/2000/svg"
   xmlns:xlink="http://www.w3.org/1999/xlink"
   version="1.0"
   width="400"
   height="360"
   id="svg2">
  <defs
     id="defs5">
    <linearGradient
       id="linearGradient2889">
      <stop
         style="stop-color:#a0a3e1;stop-opacity:1"
         offset="0"
         id="stop2891" />
      <stop
         style="stop-color:#dedcfa;stop-opacity:1"
         offset="1"
         id="stop2893" />
    </linearGradient>
    <linearGradient
       id="linearGradient2812">
      <stop
         style="stop-color:black;stop-opacity:1"
         offset="0"
         id="stop2814" />
      <stop
         style="stop-color:white;stop-opacity:0"
         offset="1"
         id="stop2816" />
    </linearGradient>
    <mask
       id="mask2799">
      <path
         d="M 168.99397,144.76334 C 168.99397,144.76334 214.49314,156.63269 246.14473,148.71979 C 277.79633,140.80689 309.44793,103.22062 309.44793,103.22062 C 309.44793,103.22062 344.06686,191.25162 348.02331,221.91411 C 351.97976,252.57659 350.00153,289.17375 327.25195,311.92334 C 304.50236,334.67292 255.67246,325.40751 232.29716,302.03221 C 218.4143,288.14936 204.60201,261.4786 192.73266,233.78346 C 180.86331,206.08831 168.00485,143.77423 168.99397,144.76334 z "
         style="fill:#e8e7fe;fill-opacity:1;fill-rule:evenodd;stroke:black;stroke-width:3.125;stroke-linecap:butt;stroke-linejoin:round;stroke-miterlimit:4;stroke-dasharray:none;stroke-opacity:1"
         id="use2796" />
    </mask>
    <mask
       id="mask2858">
      <path
         d="M 100,24 C 100,24 88.5,66.5 134,76 C 179.5,85.5 217,67 217,67 C 217,67 211,163.46447 196,192.46447 C 181,221.46447 141.5,254 118,254 C 94.5,254 76,238.5 70,223.5 C 64,208.5 60.5,128 71,102 C 78.202941,84.164147 73,78.5 82,49.5 C 87.643273,31.316121 100.5,23 100,24 z "
         style="fill:#e8e7fe;fill-opacity:1;fill-rule:evenodd;stroke:black;stroke-width:3.125;stroke-linecap:butt;stroke-linejoin:miter;stroke-miterlimit:4;stroke-dasharray:none;stroke-opacity:1"
         id="use2848" />
    </mask>
    <linearGradient
       x1="92.604424"
       y1="304.50995"
       x2="263.82959"
       y2="26.290426"
       id="linearGradient2895"
       xlink:href="#linearGradient2889"
       gradientUnits="userSpaceOnUse" />
  </defs>
  <path
     d="M 374 169 A 190 152 0 1 1  -6,169 A 190 152 0 1 1  374 169 z"
     transform="matrix(0.851641,-0.524127,0.524127,0.851641,-45.27941,132.512)"
     style="opacity:1;fill:url(#linearGradient2895);fill-opacity:1;stroke:none;stroke-width:3.125;stroke-linecap:butt;stroke-linejoin:round;stroke-miterlimit:4;stroke-dasharray:none;stroke-dashoffset:0;stroke-opacity:1"
     id="path2869" />
  <g
     transform="translate(732.0784,-15.77421)"
     style="opacity:0.34000005"
     id="g3293">
    <g
       transform="translate(-457,-114)"
       id="g3286">
      <path
         d="M -44.12698,295.7254 C -49.12698,295.7254 -44.62698,307.7254 -52.12698,307.7254 C -59.62698,307.7254 -58.18764,292.2254 -66.68764,292.2254 C -72.79632,305.67072 -68.99068,399.81852 -66.62698,414.7254 C -58.445,414.7254 -62.21765,370.5279 -60.12698,362.7254 C -59.36323,359.87504 -25.62698,416.2254 -23.12698,420.2254 C -20.62698,424.2254 -17.62698,430.2254 3.8730199,430.2254 C 25.37302,430.2254 34.37302,419.7254 43.37302,411.2254 C 52.37302,402.7254 64.87302,388.7254 64.87302,369.2254 C 64.87302,349.7254 43.37302,333.7254 43.37302,329.2254 C 43.37302,324.7254 74.87302,322.2254 74.87302,292.2254 C 74.87302,262.2254 101.87302,235.7254 101.87302,220.7254 C 101.87302,205.7254 76.37302,204.7254 51.87302,216.2254 C 27.37302,227.7254 10.87302,239.2254 -18.87698,267.7254"
         style="fill:black;fill-opacity:1;fill-rule:nonzero;stroke:none;stroke-width:1px;stroke-linecap:butt;stroke-linejoin:miter;stroke-opacity:1"
         id="path3284" />
      <path
         d="M -63.12698,364.7254 C -55.12698,377.2254 -23.12698,422.2254 -18.12698,424.7254 C -13.12698,427.2254 -50.62698,364.7254 -65.12698,357.7254"
         style="fill:black;fill-opacity:1;fill-rule:nonzero;stroke:none;stroke-width:1px;stroke-linecap:butt;stroke-linejoin:miter;stroke-opacity:1"
         id="path3282" />
      <path
         d="M -63.2431,295.7254 C -59.00046,283.1815 -39.87698,273.47887 -38.37698,265.2254 C -36.9453,257.34787 -34.42508,258.56222 -34.42508,266.06639 C -34.42508,271.86412 -61.87698,293.7091 -60.62698,296.6629"
         style="fill:black;fill-opacity:1;fill-rule:nonzero;stroke:none;stroke-width:1px;stroke-linecap:butt;stroke-linejoin:miter;stroke-opacity:1"
         id="path3102" />
    </g>
    <use
       transform="matrix(-1,0,0,1,-1046.113,0)"
       id="use3291"
       x="0"
       y="0"
       width="400"
       height="360"
       xlink:href="#g3286" />
  </g>
  <g
     transform="translate(-1.921573,7.22579)"
     id="g2942">
    <g
       id="g2924">
      <path
         d="M 219,178 C 248,178 304,171 308,174 C 312,177 307,189 311.5,192.5 C 316,196 332.5,214.5 332,220 C 331.5,225.5 321.5,253.5 317.5,257 C 313.5,260.5 263,283.5 255.5,278 C 248,272.5 208.61059,220.2835 209,216 C 209.5,210.5 220,178 219,178 z "
         style="fill:silver;fill-opacity:1;fill-rule:evenodd;stroke:none;stroke-width:1px;stroke-linecap:butt;stroke-linejoin:miter;stroke-opacity:1"
         id="path2920" />
      <path
         d="M 306.5,85.5 C 292.15295,92.438848 231.60555,142.68334 223.5,167 C 220.5,176 237,179 256,178 C 275,177 330,178 334,169 C 338,160 352,89 358,82.5 C 364,76 316.5942,80.618013 306.5,85.5 z "
         style="fill:#949494;fill-opacity:1;fill-rule:evenodd;stroke:none;stroke-width:1px;stroke-linecap:butt;stroke-linejoin:miter;stroke-opacity:1"
         id="path2918" />
      <path
         d="M 208,221 C 216,233.5 248,278.5 253,281 C 258,283.5 256.5,280 253,274.5 C 249.5,269 220.5,221 206,214"
         style="fill:#474747;fill-opacity:1;fill-rule:evenodd;stroke:none;stroke-width:1px;stroke-linecap:butt;stroke-linejoin:miter;stroke-opacity:1"
         id="path2904" />
      <path
         d="M 222,167.75 C 223.75,158 222.5,152.5 252.25,124 C 282,95.5 296.81343,87.936159 299,88 C 307.5625,88.25 276.15948,117.86944 257.5,131 C 243.25172,141.02642 222.5,168.25 222,167.75 z "
         style="fill:#474747;fill-opacity:1;fill-rule:evenodd;stroke:none;stroke-width:1px;stroke-linecap:butt;stroke-linejoin:miter;stroke-opacity:1"
         id="path2896" />
      <path
         d="M 218.496,168.37406 C 243.59829,156.7068 249.96225,151.75705 266.57926,140.44334 C 283.19627,129.12964 296.63129,114.63395 294.86353,113.21973 C 293.09576,111.80552 274.35743,112.86618 274.35743,112.86618 L 288.85312,99.784704 C 288.85312,99.784704 294.15642,104.02735 299.81328,106.14867 C 305.47013,108.26999 329.86531,106.50222 329.86531,106.50222 L 333.7544,111.80552 C 333.7544,111.80552 310.41988,111.45197 305.47013,114.63395 C 300.52038,117.81593 287.4389,136.2007 272.94321,146.1002 C 258.44753,155.99969 220.26376,173.32381 220.26376,173.32381"
         style="fill:#474747;fill-opacity:1;fill-rule:evenodd;stroke:none;stroke-width:1px;stroke-linecap:butt;stroke-linejoin:miter;stroke-opacity:1"
         id="path2898" />
      <path
         d="M 294.86353,120.99791 C 309.17421,124.22316 319.64328,122.88478 330.92597,121.70501 C 334.30079,121.35212 338.52441,130.76673 334.46151,131.25096 C 311.27891,134.01392 297.25001,133.28389 286.7318,130.1903"
         style="fill:#474747;fill-opacity:1;fill-rule:evenodd;stroke:none;stroke-width:1px;stroke-linecap:butt;stroke-linejoin:miter;stroke-opacity:1"
         id="path2900" />
      <path
         d="M 274.71098,140.08979 C 298.75262,147.51441 319.25871,149.98929 329.15821,148.92863 C 339.0577,147.86797 351.78562,154.23193 328.4511,153.87837 C 305.11658,153.52482 275.41809,147.16086 271.529,144.68598"
         style="fill:#474747;fill-opacity:1;fill-rule:evenodd;stroke:none;stroke-width:1px;stroke-linecap:butt;stroke-linejoin:miter;stroke-opacity:1"
         id="path2902" />
      <path
         d="M 217.5,198.5 C 221.5,199.5 257.5,259 264.5,271 C 271.5,283 278.82316,285.93381 267.5,267 C 259.875,254.25 228.5,202 220,196.5"
         style="fill:#474747;fill-opacity:1;fill-rule:evenodd;stroke:none;stroke-width:1px;stroke-linecap:butt;stroke-linejoin:miter;stroke-opacity:1"
         id="path2906" />
      <path
         d="M 223,194 C 252,208.5 275.5,247 283,266 C 288.01421,278.70267 292.30737,275.53762 288.5,265.5 C 283,251 257.5,204.5 224,189.5"
         style="fill:#474747;fill-opacity:1;fill-rule:evenodd;stroke:none;stroke-width:1px;stroke-linecap:butt;stroke-linejoin:miter;stroke-opacity:1"
         id="path2908" />
      <path
         d="M 258.75,220.5 C 276,221.25 293.25,238.25 301,254.5 C 307.03526,267.15457 308.20988,264.37552 304,253.5 C 298,238 276.25,214 255.25,216"
         style="fill:#474747;fill-opacity:1;fill-rule:evenodd;stroke:none;stroke-width:1px;stroke-linecap:butt;stroke-linejoin:miter;stroke-opacity:1"
         id="path2910" />
      <path
         d="M 258.80108,186.40529 C 265.87215,199.84031 271.529,205.85072 283.19627,210.80047 C 294.86353,215.75022 289.20667,219.99286 289.20667,219.99286 C 289.20667,219.99286 292.74221,223.27986 293.09576,220.69996 C 294.00781,214.04465 291.97242,210.25134 326.68333,221.40707 C 330.19751,222.53649 330.79475,217.41694 324.56201,215.75022 C 291.80864,206.9915 281.16333,206.46944 269.40768,193.82991 C 291.2396,198.16094 299.32961,200.63117 314.30896,199.13321 C 317.8445,198.77965 312.54119,193.82991 307.59145,194.18346 C 289.57496,195.47035 258.44753,183.57686 258.44753,183.57686"
         style="fill:#474747;fill-opacity:1;fill-rule:evenodd;stroke:none;stroke-width:1px;stroke-linecap:butt;stroke-linejoin:miter;stroke-opacity:1"
         id="path2914" />
      <path
         d="M 317.8445,238.02408 C 302.99526,224.2355 295.92419,221.76062 292.74221,218.22509 C 289.56023,214.68956 278.95363,225.64971 278.95363,225.64971 C 278.95363,225.64971 280.36784,230.59946 282.13561,228.83169 C 283.90337,227.06393 289.20667,214.68956 312.89475,238.02408"
         style="fill:#474747;fill-opacity:1;fill-rule:evenodd;stroke:none;stroke-width:1px;stroke-linecap:butt;stroke-linejoin:miter;stroke-opacity:1"
         id="path2912" />
      <path
         d="M 207.88388,152 C 212.12652,139.4561 231.25,129.75347 232.75,121.5 C 234.18168,113.62247 236.7019,114.83682 236.7019,122.34099 C 236.7019,128.13872 209.625,149.6712 210.875,152.625"
         style="fill:#474747;fill-opacity:1;fill-rule:evenodd;stroke:none;stroke-width:1px;stroke-linecap:butt;stroke-linejoin:miter;stroke-opacity:1"
         id="path2916" />
      <path
         d="M 204.43934,148.5 C 198.33066,161.94532 202.1363,256.09312 204.5,271 C 212.68198,271 208,226.5 211,219 C 214,211.5 229,194 227,190.5 C 225,187 222.98685,181 232.5,181 C 237,181 251,188 258,188 C 265,188 277.5,178.5 287.5,178.5 C 297.5,178.5 301.5,180.5 303.5,185.5 C 305.5,190.5 303,195 304.5,198 C 306,201 316,198 319,205 C 322,212 328,231 324,233.5 C 320,236 312,231.5 309.5,234.5 C 307,237.5 318,241 310,248 C 302,255 302.5,247 300,249 C 297.5,251 300.5,258.5 294,262 C 287.5,265.5 283.5,257.5 280.5,259 C 277.5,260.5 278.5,269 274,270 C 269.5,271 269.5,262.5 265,264 C 260.5,265.5 263,269 257.5,270 C 252,271 245.5,272.5 248,276.5 C 250.5,280.5 253.5,286.5 275,286.5 C 296.5,286.5 305.5,276 314.5,267.5 C 323.5,259 336,245 336,225.5 C 336,206 314.5,190 314.5,185.5 C 314.5,181 346,178.5 346,148.5 C 346,118.5 373,92 373,77 C 373,62 347.5,61 323,72.5 C 294.85747,85.709761 290.5,89.5 290.5,94 C 290.5,99.220153 330.5,107.5 330.5,114.5 C 330.5,121.5 315.96447,122.85355 315.96447,127.97487 C 315.96447,133.81401 330.5,132 330.5,138 C 330.5,149.66221 311.24695,147.12132 311.24695,151.20711 C 311.24695,155.30816 329.75,151.61566 329.75,161.25 C 329.75,168.00346 293.5,168.5 278,171 C 250.24728,175.47624 233,175 230,172 C 227,169 232,152 227,152 C 222,152 226.5,164 219,164 C 211.5,164 212.93934,148.5 204.43934,148.5 z M 314.25,92.124959 C 314.25,84.84399 320.25,85.135216 320.25,92.124959 C 320.25,99.114701 314.25,99.405927 314.25,92.124959 z M 332.5,102.75 C 351.00461,102.75 335.5104,93.25 332.5,93.25 C 329.2404,93.25 314.24539,102.75 332.5,102.75 z M 338.11861,110.80886 C 329.85956,120.14849 341.57141,116.56651 342.91503,115.0471 C 344.36987,113.40192 346.26608,101.59541 338.11861,110.80886 z "
         style="fill:black;fill-opacity:1;fill-rule:evenodd;stroke:none;stroke-width:1px;stroke-linecap:butt;stroke-linejoin:miter;stroke-opacity:1"
         id="path1994" />
    </g>
    <use
       transform="matrix(-1,0,0,1,409.5,0)"
       id="use2940"
       x="0"
       y="0"
       width="400"
       height="360"
       xlink:href="#g2924" />
  </g>
</svg>
