<?xml version="1.0" encoding="UTF-8" standalone="no"?>
<!-- Created with Inkscape (http://www.inkscape.org/) -->
<svg
   xmlns:dc="http://purl.org/dc/elements/1.1/"
   xmlns:cc="http://creativecommons.org/ns#"
   xmlns:rdf="http://www.w3.org/1999/02/22-rdf-syntax-ns#"
   xmlns:svg="http://www.w3.org/2000/svg"
   xmlns="http://www.w3.org/2000/svg"
   xmlns:sodipodi="http://sodipodi.sourceforge.net/DTD/sodipodi-0.dtd"
   xmlns:inkscape="http://www.inkscape.org/namespaces/inkscape"
   width="30"
   height="30"
   id="svg2"
   sodipodi:version="0.32"
   inkscape:version="0.46"
   version="1.0"
   sodipodi:docname="Status iucn VU icon blank.svg"
   inkscape:output_extension="org.inkscape.output.svg.inkscape">
  <defs
     id="defs4">
    <inkscape:perspective
       sodipodi:type="inkscape:persp3d"
       inkscape:vp_x="0 : 526.18109 : 1"
       inkscape:vp_y="0 : 1000 : 0"
       inkscape:vp_z="744.09448 : 526.18109 : 1"
       inkscape:persp3d-origin="372.04724 : 350.78739 : 1"
       id="perspective10" />
    <inkscape:perspective
       id="perspective2489"
       inkscape:persp3d-origin="120 : 21.333333 : 1"
       inkscape:vp_z="240 : 32 : 1"
       inkscape:vp_y="0 : 1000 : 0"
       inkscape:vp_x="0 : 32 : 1"
       sodipodi:type="inkscape:persp3d" />
  </defs>
  <sodipodi:namedview
     id="base"
     pagecolor="#ffffff"
     bordercolor="#666666"
     borderopacity="1.0"
     inkscape:pageopacity="0.0"
     inkscape:pageshadow="2"
     inkscape:zoom="2.6428326"
     inkscape:cx="148.08432"
     inkscape:cy="27.051517"
     inkscape:document-units="px"
     inkscape:current-layer="layer1"
     showgrid="false"
     inkscape:window-width="1024"
     inkscape:window-height="712"
     inkscape:window-x="-4"
     inkscape:window-y="-4" />
  <metadata
     id="metadata7">
    <rdf:RDF>
      <cc:Work
         rdf:about="">
        <dc:format>image/svg+xml</dc:format>
        <dc:type
           rdf:resource="http://purl.org/dc/dcmitype/StillImage" />
      </cc:Work>
    </rdf:RDF>
  </metadata>
  <g
     inkscape:label="1. réteg"
     inkscape:groupmode="layer"
     id="layer1"
     transform="translate(-392.60708,-524.74814)">
    <path
       d="M 422.1071,539.74814 C 422.1071,547.75628 415.61522,554.24816 407.60708,554.24816 C 399.59894,554.24816 393.10706,547.75628 393.10706,539.74814 C 393.10706,531.74 399.59894,525.24812 407.60708,525.24812 C 415.61522,525.24812 422.1071,531.74 422.1071,539.74814 L 422.1071,539.74814 z"
       style="fill:none;fill-opacity:1;fill-rule:nonzero;stroke:#808080;stroke-width:1;stroke-linecap:round;stroke-linejoin:miter;marker:none;marker-start:none;marker-mid:none;marker-end:none;stroke-miterlimit:4;stroke-dasharray:none;stroke-dashoffset:0;stroke-opacity:1;visibility:visible;display:inline;overflow:visible"
       id="path13412" />
    <path
       d="M 401.79615,545.02015 L 398.07599,534.91207 L 400.35494,534.91207 L 402.98888,542.39315 L 405.53763,534.91207 L 407.76689,534.91207 L 404.03962,545.02015 L 401.79615,545.02015 z M 408.83893,534.91207 L 410.9404,534.91207 L 410.9404,540.3867 C 410.9404,541.25548 410.96643,541.81857 411.0185,542.07597 C 411.10842,542.48968 411.32259,542.82179 411.66101,543.07231 C 411.99941,543.32283 412.46207,543.44809 413.04898,543.44808 C 413.64533,543.44809 414.09497,543.32972 414.39789,543.09299 C 414.7008,542.85627 414.88302,542.56553 414.94456,542.22078 C 415.00608,541.87603 415.03684,541.30374 415.03685,540.50392 L 415.03685,534.91207 L 417.13832,534.91207 L 417.13832,540.22123 C 417.13832,541.43475 417.08152,542.29202 416.96793,542.79306 C 416.85433,543.29409 416.6449,543.71699 416.33963,544.06174 C 416.03433,544.40649 415.62611,544.68114 415.11494,544.88569 C 414.60377,545.09024 413.93642,545.19252 413.11287,545.19252 C 412.11892,545.19252 411.36519,545.08106 410.85165,544.85811 C 410.33813,544.63517 409.93227,544.34559 409.63409,543.98935 C 409.33589,543.6331 409.13947,543.25963 409.04481,542.86891 C 408.90755,542.28973 408.83893,541.43475 408.83893,540.30396 L 408.83893,534.91207 z"
       style="font-size:11.87359333000000000px;font-style:normal;font-variant:normal;font-weight:bold;font-stretch:normal;text-align:center;line-height:125%;writing-mode:lr-tb;text-anchor:middle;fill:#808080;fill-opacity:1;stroke:none;stroke-width:1px;stroke-linecap:butt;stroke-linejoin:miter;stroke-opacity:1;display:inline;font-family:FreeSans"
       id="text13426" />
  </g>
</svg>
