<?xml version="1.0" encoding="UTF-8" standalone="no"?>
<!-- Created with Inkscape (http://www.inkscape.org/) -->
<svg
   xmlns:dc="http://purl.org/dc/elements/1.1/"
   xmlns:cc="http://creativecommons.org/ns#"
   xmlns:rdf="http://www.w3.org/1999/02/22-rdf-syntax-ns#"
   xmlns:svg="http://www.w3.org/2000/svg"
   xmlns="http://www.w3.org/2000/svg"
   xmlns:sodipodi="http://sodipodi.sourceforge.net/DTD/sodipodi-0.dtd"
   xmlns:inkscape="http://www.inkscape.org/namespaces/inkscape"
   width="30"
   height="30"
   id="svg2"
   sodipodi:version="0.32"
   inkscape:version="0.46"
   version="1.0"
   sodipodi:docname="Status iucn CR icon blank.svg"
   inkscape:output_extension="org.inkscape.output.svg.inkscape">
  <defs
     id="defs4">
    <inkscape:perspective
       sodipodi:type="inkscape:persp3d"
       inkscape:vp_x="0 : 526.18109 : 1"
       inkscape:vp_y="0 : 1000 : 0"
       inkscape:vp_z="744.09448 : 526.18109 : 1"
       inkscape:persp3d-origin="372.04724 : 350.78739 : 1"
       id="perspective10" />
    <inkscape:perspective
       id="perspective2489"
       inkscape:persp3d-origin="120 : 21.333333 : 1"
       inkscape:vp_z="240 : 32 : 1"
       inkscape:vp_y="0 : 1000 : 0"
       inkscape:vp_x="0 : 32 : 1"
       sodipodi:type="inkscape:persp3d" />
  </defs>
  <sodipodi:namedview
     id="base"
     pagecolor="#ffffff"
     bordercolor="#666666"
     borderopacity="1.0"
     inkscape:pageopacity="0.0"
     inkscape:pageshadow="2"
     inkscape:zoom="2.6428326"
     inkscape:cx="148.08432"
     inkscape:cy="27.051517"
     inkscape:document-units="px"
     inkscape:current-layer="layer1"
     showgrid="false"
     inkscape:window-width="1024"
     inkscape:window-height="712"
     inkscape:window-x="-4"
     inkscape:window-y="-4" />
  <metadata
     id="metadata7">
    <rdf:RDF>
      <cc:Work
         rdf:about="">
        <dc:format>image/svg+xml</dc:format>
        <dc:type
           rdf:resource="http://purl.org/dc/dcmitype/StillImage" />
      </cc:Work>
    </rdf:RDF>
  </metadata>
  <g
     inkscape:label="1. réteg"
     inkscape:groupmode="layer"
     id="layer1"
     transform="translate(-314.64808,-521.83655)">
    <path
       d="M 344.1481,536.83655 C 344.1481,544.84468 337.65622,551.33657 329.64808,551.33657 C 321.63994,551.33657 315.14806,544.84468 315.14806,536.83655 C 315.14806,528.82841 321.63994,522.33653 329.64808,522.33653 C 337.65622,522.33653 344.1481,528.82841 344.1481,536.83655 L 344.1481,536.83655 z"
       style="fill:none;fill-opacity:1;fill-rule:nonzero;stroke:#808080;stroke-width:0.99996394;stroke-linecap:round;stroke-linejoin:miter;marker:none;marker-start:none;marker-mid:none;marker-end:none;stroke-miterlimit:4;stroke-dasharray:none;stroke-dashoffset:0;stroke-opacity:1;visibility:visible;display:inline;overflow:visible"
       id="path13408" />
    <path
       d="M 326.55627,538.39215 L 328.59384,539.01959 C 328.28145,540.1228 327.762,540.94215 327.03548,541.47766 C 326.30896,542.01318 325.3872,542.28093 324.27021,542.28093 C 322.88815,542.28093 321.75222,541.82242 320.86241,540.90538 C 319.9726,539.98834 319.5277,538.73461 319.5277,537.14416 C 319.5277,535.46179 319.97497,534.15519 320.86952,533.22436 C 321.76406,532.29354 322.94022,531.82813 324.398,531.82811 C 325.67118,531.82813 326.70535,532.19355 327.5005,532.92442 C 327.97381,533.35651 328.32878,533.97707 328.56545,534.78607 L 326.48527,535.26872 C 326.3622,534.7447 326.10543,534.331 325.71497,534.02762 C 325.32448,533.72424 324.85,533.57256 324.2915,533.57255 C 323.52001,533.57256 322.89407,533.84146 322.41366,534.37926 C 321.93327,534.91708 321.69307,535.78814 321.69307,536.99247 C 321.69307,538.27035 321.92972,539.18048 322.40302,539.72289 C 322.87632,540.2653 323.49162,540.5365 324.24891,540.5365 C 324.8074,540.5365 325.2878,540.36412 325.69012,540.01937 C 326.09242,539.67463 326.38114,539.13222 326.55627,538.39215 L 326.55627,538.39215 z M 330.41133,542.10856 L 330.41133,532.00049 L 334.83436,532.00049 C 335.94661,532.0005 336.75478,532.09128 337.25886,532.27284 C 337.76292,532.45441 338.16641,532.77734 338.46934,533.24159 C 338.77224,533.70586 338.92369,534.23678 338.92371,534.83433 C 338.92369,535.59279 338.69414,536.21908 338.23505,536.71322 C 337.77593,537.20737 337.08964,537.5188 336.17618,537.64749 C 336.63054,537.90491 337.00564,538.18761 337.30146,538.49558 C 337.59726,538.80355 337.99602,539.35055 338.49773,540.13658 L 339.76855,542.10856 L 337.25531,542.10856 L 335.736,539.90906 C 335.19643,539.12303 334.82725,538.62774 334.62847,538.42317 C 334.42968,538.21864 334.21905,538.07843 333.99661,538.00258 C 333.77415,537.92674 333.42154,537.88882 332.93877,537.88882 L 332.5128,537.88882 L 332.5128,542.10856 L 330.41133,542.10856 z M 332.5128,536.27539 L 334.0676,536.27539 C 335.07573,536.27539 335.70523,536.23402 335.95608,536.15128 C 336.20694,536.06854 336.40335,535.92605 336.54536,535.72378 C 336.68733,535.52154 336.75833,535.26873 336.75834,534.96534 C 336.75833,534.6252 336.66485,534.35054 336.47791,534.14138 C 336.29094,533.93225 336.02708,533.80009 335.6863,533.74493 C 335.51591,533.72195 335.00473,533.71045 334.1528,533.71045 L 332.5128,533.71045 L 332.5128,536.27539 z"
       style="font-size:11.87358379000000000px;font-style:normal;font-variant:normal;font-weight:bold;font-stretch:normal;text-align:center;line-height:125%;writing-mode:lr-tb;text-anchor:middle;fill:#808080;fill-opacity:1;stroke:none;stroke-width:1px;stroke-linecap:butt;stroke-linejoin:miter;stroke-opacity:1;display:inline;font-family:FreeSans"
       id="text13442" />
  </g>
</svg>
