<?xml version="1.0" encoding="UTF-8" standalone="no"?>
<!-- Created with Inkscape (http://www.inkscape.org/) -->
<svg
   xmlns:dc="http://purl.org/dc/elements/1.1/"
   xmlns:cc="http://creativecommons.org/ns#"
   xmlns:rdf="http://www.w3.org/1999/02/22-rdf-syntax-ns#"
   xmlns:svg="http://www.w3.org/2000/svg"
   xmlns="http://www.w3.org/2000/svg"
   xmlns:sodipodi="http://sodipodi.sourceforge.net/DTD/sodipodi-0.dtd"
   xmlns:inkscape="http://www.inkscape.org/namespaces/inkscape"
   width="30"
   height="30"
   id="svg2"
   sodipodi:version="0.32"
   inkscape:version="0.46"
   version="1.0"
   sodipodi:docname="Status LC icon.svg"
   inkscape:output_extension="org.inkscape.output.svg.inkscape">
  <defs
     id="defs4">
    <inkscape:perspective
       sodipodi:type="inkscape:persp3d"
       inkscape:vp_x="0 : 526.18109 : 1"
       inkscape:vp_y="0 : 1000 : 0"
       inkscape:vp_z="744.09448 : 526.18109 : 1"
       inkscape:persp3d-origin="372.04724 : 350.78739 : 1"
       id="perspective10" />
    <inkscape:perspective
       id="perspective2489"
       inkscape:persp3d-origin="120 : 21.333333 : 1"
       inkscape:vp_z="240 : 32 : 1"
       inkscape:vp_y="0 : 1000 : 0"
       inkscape:vp_x="0 : 32 : 1"
       sodipodi:type="inkscape:persp3d" />
  </defs>
  <sodipodi:namedview
     id="base"
     pagecolor="#ffffff"
     bordercolor="#666666"
     borderopacity="1.0"
     inkscape:pageopacity="0.0"
     inkscape:pageshadow="2"
     inkscape:zoom="2.6428326"
     inkscape:cx="148.08432"
     inkscape:cy="27.051517"
     inkscape:document-units="px"
     inkscape:current-layer="layer1"
     showgrid="false"
     inkscape:window-width="1024"
     inkscape:window-height="712"
     inkscape:window-x="-4"
     inkscape:window-y="-4" />
  <metadata
     id="metadata7">
    <rdf:RDF>
      <cc:Work
         rdf:about="">
        <dc:format>image/svg+xml</dc:format>
        <dc:type
           rdf:resource="http://purl.org/dc/dcmitype/StillImage" />
      </cc:Work>
    </rdf:RDF>
  </metadata>
  <g
     inkscape:label="1. réteg"
     inkscape:groupmode="layer"
     id="layer1"
     transform="translate(-347.47925,-561.67655)">
    <path
       d="M 377.47925,576.67655 C 377.47925,584.96082 370.76352,591.67655 362.47925,591.67655 C 354.19498,591.67655 347.47925,584.96082 347.47925,576.67655 C 347.47925,568.39228 354.19498,561.67655 362.47925,561.67655 C 370.76352,561.67655 377.47925,568.39228 377.47925,576.67655 L 377.47925,576.67655 z"
       style="fill:#006666;fill-opacity:1;fill-rule:nonzero;stroke:none;stroke-width:0.50581741;stroke-linecap:round;stroke-linejoin:miter;marker:none;marker-start:none;marker-mid:none;marker-end:none;stroke-miterlimit:4;stroke-dasharray:none;stroke-dashoffset:0;stroke-opacity:1;visibility:visible;display:inline;overflow:visible"
       id="path2072" />
    <path
       d="M 353.71492,581.94855 L 353.71492,571.92321 L 355.81639,571.92321 L 355.81639,580.24548 L 361.04169,580.24548 L 361.04169,581.94855 L 353.71492,581.94855 z M 369.2062,578.23214 L 371.24379,578.85958 C 370.93139,579.96279 370.41194,580.78214 369.68543,581.31765 C 368.95889,581.85316 368.03712,582.12093 366.92013,582.12093 C 365.53808,582.12093 364.40215,581.66241 363.51233,580.74537 C 362.62252,579.82833 362.17761,578.5746 362.17761,576.98414 C 362.17761,575.30177 362.6249,573.99516 363.51944,573.06433 C 364.41397,572.13351 365.59014,571.66809 367.04793,571.66809 C 368.32112,571.66809 369.35529,572.03353 370.15045,572.7644 C 370.62374,573.19649 370.97872,573.81704 371.21537,574.62605 L 369.1352,575.1087 C 369.01214,574.58468 368.75537,574.17098 368.3649,573.86759 C 367.97442,573.56422 367.49992,573.41254 366.94143,573.41253 C 366.16995,573.41254 365.544,573.68144 365.0636,574.21924 C 364.58319,574.75706 364.34299,575.62813 364.34299,576.83245 C 364.34299,578.11033 364.57964,579.02047 365.05295,579.56287 C 365.52624,580.10529 366.14155,580.37649 366.89885,580.37649 C 367.45733,580.37649 367.93773,580.20411 368.34005,579.85936 C 368.74235,579.51461 369.03107,578.97221 369.2062,578.23214 L 369.2062,578.23214 z"
       style="font-size:11.87360668px;font-style:normal;font-variant:normal;font-weight:bold;font-stretch:normal;text-align:center;line-height:125%;writing-mode:lr-tb;text-anchor:middle;fill:#ffffff;fill-opacity:1;stroke:none;stroke-width:1px;stroke-linecap:butt;stroke-linejoin:miter;stroke-opacity:1;display:inline;font-family:FreeSans"
       id="text3021" />
  </g>
</svg>
